<svg width="1000" height="1000" viewBox="0 0 1000 1000" xmlns="http://www.w3.org/2000/svg"><defs/><path fill="#192559" transform="matrix(0.6232310340963148 0 0 0.6232310340963149 -108.54588537988106 39.716065393271094)" d="M 902.68707082442 522.73038528576 C 918.68707082442 506.73038528576 919.78707082442 481.33038528576 905.98707082442 464.03038528576 L 1011.58707082442 569.63038528576 C 1028.78707082442 586.83038528576 1056.68707082442 586.83038528576 1073.88707082442 569.63038528576 L 964.88707082442 460.63038528576 C 947.78707082442 443.53038528576 919.98707082442 443.43038528576 902.78707082442 460.43038528576 C 902.78707082442 460.43038528576 902.78707082442 460.43038528576 902.78707082442 460.43038528576 L 832.58707082442 530.53038528576 C 815.38707082442 547.73038528576 815.38707082442 575.63038528576 832.58707082442 592.83038528576 L 902.68707082442 522.73038528576 Z"/><path fill="#192559" transform="matrix(0.6232310340963148 0 0 0.6232310340963149 -108.54588537988106 39.716065393271094)" d="M 1050.28707082442 702.03038528576 C 1034.28707082442 718.03038528576 1033.18707082442 743.43038528576 1046.98707082442 760.73038528576 L 941.38707082442 655.13038528576 C 924.18707082442 637.93038528576 896.28707082442 637.93038528576 879.08707082442 655.13038528576 L 988.08707082442 764.13038528576 C 1005.18707082442 781.23038528576 1032.98707082442 781.33038528576 1050.18707082442 764.33038528576 C 1050.18707082442 764.33038528576 1050.18707082442 764.33038528576 1050.18707082442 764.33038528576 L 1120.28707082442 694.23038528576 C 1137.48707082442 677.03038528576 1137.48707082442 649.13038528576 1120.28707082442 631.93038528576 L 1050.28707082442 702.03038528576 Z"/><path fill="#192559" transform="matrix(0.6232310340963148 0 0 0.6232310340963149 -108.54588537988106 39.716065393271094)" d="M 886.78707082442 686.23038528576 C 870.78707082442 670.23038528576 845.38707082442 669.13038528576 828.08707082442 682.93038528576 L 933.68707082442 577.33038528576 C 950.88707082442 560.13038528576 950.88707082442 532.23038528576 933.68707082442 515.03038528576 L 824.68707082442 624.03038528576 C 807.58707082442 641.13038528576 807.48707082442 668.93038528576 824.48707082442 686.13038528576 C 824.48707082442 686.13038528576 824.48707082442 686.13038528576 824.48707082442 686.13038528576 L 894.58707082442 756.33038528576 C 911.78707082442 773.53038528576 939.68707082442 773.53038528576 956.88707082442 756.33038528576 L 886.78707082442 686.23038528576 Z"/><path fill="#192559" transform="matrix(0.6232310340963148 0 0 0.6232310340963149 -108.54588537988106 39.716065393271094)" d="M 1066.08707082442 538.63038528576 C 1082.08707082442 554.63038528576 1107.48707082442 555.73038528576 1124.78707082442 541.93038528576 L 1019.18707082442 647.43038528576 C 1001.98707082442 664.63038528576 1001.98707082442 692.53038528576 1019.18707082442 709.73038528576 L 1128.18707082442 600.73038528576 C 1145.28707082442 583.63038528576 1145.38707082442 555.83038528576 1128.38707082442 538.63038528576 C 1128.38707082442 538.63038528576 1128.38707082442 538.63038528576 1128.38707082442 538.63038528576 L 1058.28707082442 468.53038528576 C 1041.08707082442 451.33038528576 1013.18707082442 451.33038528576 995.98707082442 468.53038528576 L 1066.08707082442 538.63038528576 Z"/><path id="text" fill="#192559" transform="matrix(0.48562548562548563 0 0 0.4856254856254857 -97.85403263403265 418.20818059736786)" d="M 695.132274 379.2384645139 C 695.132274 369.8634645139 696.819774 363.4259645139 700.194774 359.9259645139 C 702.851024 357.1759645139 706.710399 355.8009645139 711.772899 355.8009645139 C 719.147899 355.8009645139 723.866649 358.8322145139 725.929149 364.8947145139 C 727.147899 368.4884645139 727.757274 373.2697145139 727.757274 379.2384645139 L 727.757274 415.6134645139 C 727.757274 424.2072145139 726.554149 430.4650270139 724.147899 434.3869020139 C 721.741649 438.3087770139 717.5307115 440.2697145139 711.5150865 440.2697145139 C 705.4994615 440.2697145139 701.2650865 438.3009645139 698.8119615 434.3634645139 C 696.3588365 430.4259645139 695.132274 424.1759645139 695.132274 415.6134645139 L 695.132274 379.2384645139 Z M 718.054149 378.6759645139 C 718.054149 373.3947145139 717.632274 369.6525270139 716.788524 367.4494020139 C 715.944774 365.2462770139 714.241649 364.1447145139 711.679149 364.1447145139 C 709.116649 364.1447145139 707.335399 365.2697145139 706.335399 367.5197145139 C 705.335399 369.7697145139 704.835399 373.4728395139 704.835399 378.6290895139 L 704.835399 415.7072145139 C 704.835399 421.9884645139 705.272899 426.2619020139 706.147899 428.5275270139 C 707.022899 430.7931520139 708.788524 431.9259645139 711.444774 431.9259645139 C 714.101024 431.9259645139 715.866649 430.7775270139 716.741649 428.4806520139 C 717.616649 426.1837770139 718.054149 421.9259645139 718.054149 415.7072145139 L 718.054149 378.6759645139 Z M 740.319774 356.8322145139 L 757.616649 356.8322145139 C 762.522899 356.8322145139 766.054149 357.8478395139 768.210399 359.8790895139 C 770.366649 361.9103395139 771.663524 365.3634645139 772.101024 370.2384645139 C 772.288524 372.2384645139 772.382274 375.3556520139 772.382274 379.5900270139 C 772.382274 383.8244020139 771.8275865 387.3790895139 770.7182115 390.2540895139 C 769.6088365 393.1290895139 767.647899 394.9884645139 764.835399 395.8322145139 C 766.897899 396.1759645139 768.460399 397.2619020139 769.522899 399.0900270139 C 770.585399 400.9181520139 771.335399 403.8244020139 771.772899 407.8087770139 C 772.210399 411.7931520139 772.429149 417.7150270139 772.429149 425.5744020139 C 772.429149 433.4337770139 772.679149 438.0197145139 773.179149 439.3322145139 L 763.522899 439.3322145139 C 763.022899 438.3322145139 762.772899 429.0665895139 762.772899 411.5353395139 C 762.772899 405.6290895139 762.194774 402.1994020139 761.038524 401.2462770139 C 759.882274 400.2931520139 758.132274 399.8165895139 755.788524 399.8165895139 L 750.022899 399.4884645139 L 750.022899 439.3322145139 L 740.319774 439.3322145139 L 740.319774 356.8322145139 Z M 762.772899 377.0353395139 C 762.772899 370.6915895139 762.2025865 367.0197145139 761.0619615 366.0197145139 C 759.9213365 365.0197145139 758.272899 364.5197145139 756.116649 364.5197145139 L 750.022899 364.5197145139 L 750.022899 392.3634645139 L 756.210399 392.3634645139 C 758.085399 392.3634645139 759.460399 392.0040895139 760.335399 391.2853395139 C 761.210399 390.5665895139 761.835399 389.1915895139 762.210399 387.1603395139 C 762.585399 385.1290895139 762.772899 381.9415895139 762.772899 377.5978395139 L 762.772899 377.0353395139 Z M 785.741649 356.8322145139 L 800.647899 356.8322145139 C 806.866649 356.8322145139 811.0932115 358.2462770139 813.3275865 361.0744020139 C 815.5619615 363.9025270139 816.710399 368.6759645139 816.772899 375.3947145139 L 816.772899 377.1759645139 C 816.772899 382.0197145139 816.319774 385.8322145139 815.413524 388.6134645139 C 814.507274 391.3947145139 812.882274 393.4103395139 810.538524 394.6603395139 C 815.601024 396.7228395139 818.132274 403.3322145139 818.132274 414.4884645139 L 818.132274 416.2228395139 C 818.038524 424.4728395139 816.788524 430.3869020139 814.382274 433.9650270139 C 811.976024 437.5431520139 807.804149 439.3322145139 801.866649 439.3322145139 L 785.741649 439.3322145139 L 785.741649 356.8322145139 Z M 808.382274 413.0822145139 C 808.382274 407.7697145139 807.944774 404.0509645139 807.069774 401.9259645139 C 806.194774 399.8009645139 804.476024 398.7384645139 801.913524 398.7384645139 L 795.444774 398.7384645139 L 795.444774 431.5040895139 L 801.397899 431.5040895139 C 804.147899 431.5040895139 805.9994615 430.4259645139 806.9525865 428.2697145139 C 807.9057115 426.1134645139 808.382274 422.0040895139 808.382274 415.9415895139 L 808.382274 413.0822145139 Z M 807.163524 375.5353395139 C 807.163524 375.4415895139 807.163524 375.3478395139 807.163524 375.2540895139 C 807.163524 369.7540895139 806.210399 366.5040895139 804.304149 365.5040895139 C 803.366649 365.0040895139 802.007274 364.7540895139 800.226024 364.7540895139 L 795.444774 364.7540895139 L 795.444774 391.2853395139 L 800.929149 391.2853395139 C 802.804149 391.2853395139 804.1400865 390.9806520139 804.9369615 390.3712770139 C 805.7338365 389.7619020139 806.304149 388.5509645139 806.647899 386.7384645139 C 806.991649 384.9259645139 807.163524 381.9572145139 807.163524 377.8322145139 L 807.163524 375.5353395139 Z M 830.366649 356.8322145139 L 840.069774 356.8322145139 L 840.069774 439.3322145139 L 830.366649 439.3322145139 L 830.366649 356.8322145139 Z M 848.882274 356.8322145139 L 876.116649 356.8322145139 L 876.116649 364.8947145139 L 867.632274 364.8947145139 L 867.632274 439.3322145139 L 857.976024 439.3322145139 L 857.976024 364.8947145139 L 848.882274 364.8947145139 L 848.882274 356.8322145139 Z M 906.632274 356.8322145139 L 916.288524 356.8322145139 L 916.288524 418.1447145139 C 916.288524 425.8634645139 915.0775865 431.4884645139 912.6557115 435.0197145139 C 910.2338365 438.5509645139 906.038524 440.3165895139 900.069774 440.3165895139 C 894.101024 440.3165895139 889.882274 438.5509645139 887.413524 435.0197145139 C 884.944774 431.4884645139 883.710399 425.8634645139 883.710399 418.1447145139 L 883.710399 356.8322145139 L 893.413524 356.8322145139 L 893.413524 417.9103395139 C 893.413524 423.4103395139 893.6400865 426.6994020139 894.0932115 427.7775270139 C 894.5463365 428.8556520139 895.022899 429.7072145139 895.522899 430.3322145139 C 896.397899 431.5197145139 897.913524 432.1134645139 900.069774 432.1134645139 C 902.226024 432.1134645139 903.819774 431.4572145139 904.851024 430.1447145139 C 905.882274 428.8322145139 906.4369615 426.8790895139 906.5150865 424.2853395139 C 906.5932115 421.6915895139 906.632274 419.5822145139 906.632274 417.9572145139 L 906.632274 356.8322145139 Z M 928.382274 382.3790895139 C 927.819774 380.4103395139 927.538524 378.0509645139 927.538524 375.3009645139 C 927.538524 369.3322145139 928.6400865 364.5900270139 930.8432115 361.0744020139 C 933.0463365 357.5587770139 937.257274 355.8009645139 943.476024 355.8009645139 C 951.476024 355.8009645139 956.194774 359.6447145139 957.632274 367.3322145139 C 958.257274 370.6447145139 958.569774 374.8165895139 958.569774 379.8478395139 L 958.569774 384.7228395139 L 949.288524 384.7228395139 L 949.288524 379.1915895139 C 949.288524 373.9415895139 949.022899 370.4103395139 948.491649 368.5978395139 C 947.960399 366.7853395139 947.304149 365.5822145139 946.522899 364.9884645139 C 945.741649 364.3947145139 944.726024 364.0978395139 943.476024 364.0978395139 C 941.132274 364.0978395139 939.444774 364.9572145139 938.413524 366.6759645139 C 937.382274 368.3947145139 936.866649 370.9415895139 936.866649 374.3165895139 C 936.866649 377.6915895139 937.335399 380.1603395139 938.272899 381.7228395139 C 939.210399 383.2853395139 940.366649 384.7775270139 941.741649 386.1994020139 C 943.116649 387.6212770139 943.882274 388.4259645139 944.038524 388.6134645139 L 949.663524 394.5665895139 C 956.413524 401.6290895139 959.788524 409.5353395139 959.788524 418.2853395139 C 959.788524 425.4103395139 958.6869615 430.8556520139 956.4838365 434.6212770139 C 954.2807115 438.3869020139 950.085399 440.2697145139 943.897899 440.2697145139 C 936.429149 440.2697145139 931.694774 436.9884645139 929.694774 430.4259645139 C 928.538524 426.7384645139 927.960399 421.9103395139 927.960399 415.9415895139 C 927.960399 415.7853395139 927.960399 415.6290895139 927.960399 415.4728395139 L 927.960399 407.4572145139 L 937.382274 407.4572145139 L 937.382274 415.8478395139 C 937.382274 421.8790895139 937.819774 426.0744020139 938.694774 428.4337770139 C 939.569774 430.7931520139 941.194774 431.9728395139 943.569774 431.9728395139 C 945.944774 431.9728395139 947.585399 431.4181520139 948.491649 430.3087770139 C 949.397899 429.1994020139 949.9213365 427.5040895139 950.0619615 425.2228395139 C 950.2025865 422.9415895139 950.272899 420.3790895139 950.272899 417.5353395139 C 950.272899 411.8165895139 947.757274 406.4415895139 942.726024 401.4103395139 L 937.335399 396.0197145139 C 932.522899 391.0822145139 929.538524 386.5353395139 928.382274 382.3790895139 Z M 992.835399 382.3790895139 C 992.272899 380.4103395139 991.991649 378.0509645139 991.991649 375.3009645139 C 991.991649 369.3322145139 993.0932115 364.5900270139 995.2963365 361.0744020139 C 997.4994615 357.5587770139 1001.710399 355.8009645139 1007.929149 355.8009645139 C 1015.929149 355.8009645139 1020.647899 359.6447145139 1022.085399 367.3322145139 C 1022.710399 370.6447145139 1023.022899 374.8165895139 1023.022899 379.8478395139 L 1023.022899 384.7228395139 L 1013.741649 384.7228395139 L 1013.741649 379.1915895139 C 1013.741649 373.9415895139 1013.476024 370.4103395139 1012.944774 368.5978395139 C 1012.413524 366.7853395139 1011.757274 365.5822145139 1010.976024 364.9884645139 C 1010.194774 364.3947145139 1009.179149 364.0978395139 1007.929149 364.0978395139 C 1005.585399 364.0978395139 1003.897899 364.9572145139 1002.866649 366.6759645139 C 1001.835399 368.3947145139 1001.319774 370.9415895139 1001.319774 374.3165895139 C 1001.319774 377.6915895139 1001.788524 380.1603395139 1002.726024 381.7228395139 C 1003.663524 383.2853395139 1004.819774 384.7775270139 1006.194774 386.1994020139 C 1007.569774 387.6212770139 1008.335399 388.4259645139 1008.491649 388.6134645139 L 1014.116649 394.5665895139 C 1020.866649 401.6290895139 1024.241649 409.5353395139 1024.241649 418.2853395139 C 1024.241649 425.4103395139 1023.1400865 430.8556520139 1020.9369615 434.6212770139 C 1018.7338365 438.3869020139 1014.538524 440.2697145139 1008.351024 440.2697145139 C 1000.882274 440.2697145139 996.147899 436.9884645139 994.147899 430.4259645139 C 992.991649 426.7384645139 992.413524 421.9103395139 992.413524 415.9415895139 C 992.413524 415.7853395139 992.413524 415.6290895139 992.413524 415.4728395139 L 992.413524 407.4572145139 L 1001.835399 407.4572145139 L 1001.835399 415.8478395139 C 1001.835399 421.8790895139 1002.272899 426.0744020139 1003.147899 428.4337770139 C 1004.022899 430.7931520139 1005.647899 431.9728395139 1008.022899 431.9728395139 C 1010.397899 431.9728395139 1012.038524 431.4181520139 1012.944774 430.3087770139 C 1013.851024 429.1994020139 1014.3744615 427.5040895139 1014.5150865 425.2228395139 C 1014.6557115 422.9415895139 1014.726024 420.3790895139 1014.726024 417.5353395139 C 1014.726024 411.8165895139 1012.210399 406.4415895139 1007.179149 401.4103395139 L 1001.788524 396.0197145139 C 996.976024 391.0822145139 993.991649 386.5353395139 992.835399 382.3790895139 Z M 1057.569774 356.8322145139 L 1067.272899 356.8322145139 L 1067.272899 439.3322145139 L 1057.569774 439.3322145139 L 1057.569774 399.3478395139 L 1044.351024 399.3478395139 L 1044.351024 439.3322145139 L 1034.647899 439.3322145139 L 1034.647899 356.8322145139 L 1044.351024 356.8322145139 L 1044.351024 391.4259645139 L 1057.569774 391.4259645139 L 1057.569774 356.8322145139 Z M 1081.522899 356.8322145139 L 1091.226024 356.8322145139 L 1091.226024 439.3322145139 L 1081.522899 439.3322145139 L 1081.522899 356.8322145139 Z M 1105.476024 356.8322145139 L 1122.069774 356.8322145139 C 1129.382274 356.8322145139 1133.976024 359.8634645139 1135.851024 365.9259645139 C 1137.038524 369.7384645139 1137.632274 374.1915895139 1137.632274 379.2853395139 C 1137.632274 384.3790895139 1137.491649 388.2072145139 1137.210399 390.7697145139 C 1136.585399 396.3947145139 1135.101024 400.4962770139 1132.757274 403.0744020139 C 1130.413524 405.6525270139 1126.851024 406.9415895139 1122.069774 406.9415895139 L 1115.179149 406.9415895139 L 1115.179149 439.3322145139 L 1105.476024 439.3322145139 L 1105.476024 356.8322145139 Z M 1127.929149 380.1290895139 C 1127.929149 374.4728395139 1127.4838365 370.4572145139 1126.5932115 368.0822145139 C 1125.7025865 365.7072145139 1123.944774 364.5197145139 1121.319774 364.5197145139 L 1115.179149 364.5197145139 L 1115.179149 398.8790895139 L 1121.085399 398.8790895139 C 1123.835399 398.8790895139 1125.663524 397.6759645139 1126.569774 395.2697145139 C 1127.476024 392.8634645139 1127.929149 388.3478395139 1127.929149 381.7228395139 L 1127.929149 380.1290895139 Z M 1147.194774 356.8322145139 L 1163.788524 356.8322145139 C 1171.101024 356.8322145139 1175.694774 359.8634645139 1177.569774 365.9259645139 C 1178.757274 369.7384645139 1179.351024 374.1915895139 1179.351024 379.2853395139 C 1179.351024 384.3790895139 1179.210399 388.2072145139 1178.929149 390.7697145139 C 1178.304149 396.3947145139 1176.819774 400.4962770139 1174.476024 403.0744020139 C 1172.132274 405.6525270139 1168.569774 406.9415895139 1163.788524 406.9415895139 L 1156.897899 406.9415895139 L 1156.897899 439.3322145139 L 1147.194774 439.3322145139 L 1147.194774 356.8322145139 Z M 1169.647899 380.1290895139 C 1169.647899 374.4728395139 1169.2025865 370.4572145139 1168.3119615 368.0822145139 C 1167.4213365 365.7072145139 1165.663524 364.5197145139 1163.038524 364.5197145139 L 1156.897899 364.5197145139 L 1156.897899 398.8790895139 L 1162.804149 398.8790895139 C 1165.554149 398.8790895139 1167.382274 397.6759645139 1168.288524 395.2697145139 C 1169.194774 392.8634645139 1169.647899 388.3478395139 1169.647899 381.7228395139 L 1169.647899 380.1290895139 Z M 1189.663524 356.8322145139 L 1199.366649 356.8322145139 L 1199.366649 439.3322145139 L 1189.663524 439.3322145139 L 1189.663524 356.8322145139 Z M 1239.069774 356.8322145139 L 1247.647899 356.8322145139 L 1247.647899 439.3322145139 L 1240.522899 439.3322145139 L 1222.007274 382.7072145139 L 1222.569774 403.5197145139 L 1222.569774 439.3322145139 L 1213.616649 439.3322145139 L 1213.616649 356.8322145139 L 1220.929149 356.8322145139 L 1240.054149 412.9884645139 L 1239.069774 389.1290895139 L 1239.069774 356.8322145139 Z M 1260.210399 380.1759645139 C 1260.210399 368.0509645139 1263.085399 360.5197145139 1268.835399 357.5822145139 C 1271.085399 356.4572145139 1273.554149 355.8790895139 1276.241649 355.8478395139 C 1281.272899 355.8478395139 1284.913524 356.9181520139 1287.163524 359.0587770139 C 1289.413524 361.1994020139 1290.866649 364.0275270139 1291.522899 367.5431520139 C 1292.179149 371.0587770139 1292.507274 375.3322145139 1292.507274 380.3634645139 L 1292.507274 386.7384645139 L 1283.132274 386.7384645139 L 1283.132274 376.0040895139 C 1283.132274 371.7853395139 1282.7025865 368.7697145139 1281.8432115 366.9572145139 C 1280.9838365 365.1447145139 1279.2963365 364.2384645139 1276.7807115 364.2384645139 C 1274.2650865 364.2384645139 1272.491649 365.3790895139 1271.460399 367.6603395139 C 1270.429149 369.9415895139 1269.913524 373.9728395139 1269.913524 379.7540895139 L 1269.913524 414.4415895139 C 1269.913524 421.0353395139 1270.366649 425.6212770139 1271.272899 428.1994020139 C 1272.179149 430.7775270139 1273.9682115 432.0665895139 1276.6400865 432.0665895139 C 1279.3119615 432.0665895139 1281.1400865 430.7384645139 1282.1244615 428.0822145139 C 1283.1088365 425.4259645139 1283.601024 420.8165895139 1283.601024 414.2540895139 L 1283.601024 403.5197145139 L 1276.897899 403.5197145139 L 1276.897899 396.0197145139 L 1292.507274 396.0197145139 L 1292.507274 439.3322145139 L 1287.397899 439.3322145139 L 1286.085399 432.9572145139 C 1284.241649 437.7384645139 1280.7182115 440.1290895139 1275.5150865 440.1290895139 C 1270.3119615 440.1290895139 1266.460399 438.1056520139 1263.960399 434.0587770139 C 1261.460399 430.0119020139 1260.210399 423.5822145139 1260.210399 414.7697145139 L 1260.210399 380.1759645139 Z M 1327.944774 380.6447145139 C 1327.944774 374.3947145139 1328.460399 369.8009645139 1329.491649 366.8634645139 C 1330.522899 363.9259645139 1331.647899 361.7697145139 1332.866649 360.3947145139 C 1335.522899 357.3947145139 1339.397899 355.8790895139 1344.491649 355.8478395139 C 1351.616649 355.8790895139 1356.210399 359.0197145139 1358.272899 365.2697145139 C 1359.460399 368.8634645139 1360.054149 373.6447145139 1360.054149 379.6134645139 L 1360.054149 388.7540895139 L 1350.538524 388.7540895139 L 1350.538524 379.5665895139 C 1350.538524 374.2853395139 1350.2494615 370.7150270139 1349.6713365 368.8556520139 C 1349.0932115 366.9962770139 1348.397899 365.7619020139 1347.585399 365.1525270139 C 1346.772899 364.5431520139 1345.741649 364.2384645139 1344.491649 364.2384645139 C 1341.897899 364.2384645139 1340.1088365 365.4650270139 1339.1244615 367.9181520139 C 1338.1400865 370.3712770139 1337.647899 374.2384645139 1337.647899 379.5197145139 L 1337.647899 415.2384645139 C 1337.647899 421.4884645139 1338.0932115 425.8556520139 1338.9838365 428.3400270139 C 1339.8744615 430.8244020139 1341.5932115 432.0665895139 1344.1400865 432.0665895139 C 1346.6869615 432.0665895139 1348.3900865 430.8165895139 1349.2494615 428.3165895139 C 1350.1088365 425.8165895139 1350.538524 421.4415895139 1350.538524 415.1915895139 L 1350.538524 406.0509645139 L 1360.147899 406.0509645139 L 1360.147899 415.0978395139 C 1360.147899 423.7540895139 1358.9682115 430.1212770139 1356.6088365 434.1994020139 C 1354.2494615 438.2775270139 1350.132274 440.3165895139 1344.257274 440.3165895139 C 1338.382274 440.3165895139 1334.194774 438.2150270139 1331.694774 434.0119020139 C 1329.194774 429.8087770139 1327.944774 423.4728395139 1327.944774 415.0040895139 L 1327.944774 380.6447145139 Z M 1370.976024 379.2384645139 C 1370.976024 369.8634645139 1372.663524 363.4259645139 1376.038524 359.9259645139 C 1378.694774 357.1759645139 1382.554149 355.8009645139 1387.616649 355.8009645139 C 1394.991649 355.8009645139 1399.710399 358.8322145139 1401.772899 364.8947145139 C 1402.991649 368.4884645139 1403.601024 373.2697145139 1403.601024 379.2384645139 L 1403.601024 415.6134645139 C 1403.601024 424.2072145139 1402.397899 430.4650270139 1399.991649 434.3869020139 C 1397.585399 438.3087770139 1393.3744615 440.2697145139 1387.3588365 440.2697145139 C 1381.3432115 440.2697145139 1377.1088365 438.3009645139 1374.6557115 434.3634645139 C 1372.2025865 430.4259645139 1370.976024 424.1759645139 1370.976024 415.6134645139 L 1370.976024 379.2384645139 Z M 1393.897899 378.6759645139 C 1393.897899 373.3947145139 1393.476024 369.6525270139 1392.632274 367.4494020139 C 1391.788524 365.2462770139 1390.085399 364.1447145139 1387.522899 364.1447145139 C 1384.960399 364.1447145139 1383.179149 365.2697145139 1382.179149 367.5197145139 C 1381.179149 369.7697145139 1380.679149 373.4728395139 1380.679149 378.6290895139 L 1380.679149 415.7072145139 C 1380.679149 421.9884645139 1381.116649 426.2619020139 1381.991649 428.5275270139 C 1382.866649 430.7931520139 1384.632274 431.9259645139 1387.288524 431.9259645139 C 1389.944774 431.9259645139 1391.710399 430.7775270139 1392.585399 428.4806520139 C 1393.460399 426.1837770139 1393.897899 421.9259645139 1393.897899 415.7072145139 L 1393.897899 378.6759645139 Z M 1416.163524 356.8322145139 L 1433.460399 356.8322145139 C 1438.366649 356.8322145139 1441.897899 357.8478395139 1444.054149 359.8790895139 C 1446.210399 361.9103395139 1447.507274 365.3634645139 1447.944774 370.2384645139 C 1448.132274 372.2384645139 1448.226024 375.3556520139 1448.226024 379.5900270139 C 1448.226024 383.8244020139 1447.6713365 387.3790895139 1446.5619615 390.2540895139 C 1445.4525865 393.1290895139 1443.491649 394.9884645139 1440.679149 395.8322145139 C 1442.741649 396.1759645139 1444.304149 397.2619020139 1445.366649 399.0900270139 C 1446.429149 400.9181520139 1447.179149 403.8244020139 1447.616649 407.8087770139 C 1448.054149 411.7931520139 1448.272899 417.7150270139 1448.272899 425.5744020139 C 1448.272899 433.4337770139 1448.522899 438.0197145139 1449.022899 439.3322145139 L 1439.366649 439.3322145139 C 1438.866649 438.3322145139 1438.616649 429.0665895139 1438.616649 411.5353395139 C 1438.616649 405.6290895139 1438.038524 402.1994020139 1436.882274 401.2462770139 C 1435.726024 400.2931520139 1433.976024 399.8165895139 1431.632274 399.8165895139 L 1425.866649 399.4884645139 L 1425.866649 439.3322145139 L 1416.163524 439.3322145139 L 1416.163524 356.8322145139 Z M 1438.616649 377.0353395139 C 1438.616649 370.6915895139 1438.0463365 367.0197145139 1436.9057115 366.0197145139 C 1435.7650865 365.0197145139 1434.116649 364.5197145139 1431.960399 364.5197145139 L 1425.866649 364.5197145139 L 1425.866649 392.3634645139 L 1432.054149 392.3634645139 C 1433.929149 392.3634645139 1435.304149 392.0040895139 1436.179149 391.2853395139 C 1437.054149 390.5665895139 1437.679149 389.1915895139 1438.054149 387.1603395139 C 1438.429149 385.1290895139 1438.616649 381.9415895139 1438.616649 377.5978395139 L 1438.616649 377.0353395139 Z M 1460.835399 356.8322145139 L 1477.429149 356.8322145139 C 1484.741649 356.8322145139 1489.335399 359.8634645139 1491.210399 365.9259645139 C 1492.397899 369.7384645139 1492.991649 374.1915895139 1492.991649 379.2853395139 C 1492.991649 384.3790895139 1492.851024 388.2072145139 1492.569774 390.7697145139 C 1491.944774 396.3947145139 1490.460399 400.4962770139 1488.116649 403.0744020139 C 1485.772899 405.6525270139 1482.210399 406.9415895139 1477.429149 406.9415895139 L 1470.538524 406.9415895139 L 1470.538524 439.3322145139 L 1460.835399 439.3322145139 L 1460.835399 356.8322145139 Z M 1483.288524 380.1290895139 C 1483.288524 374.4728395139 1482.8432115 370.4572145139 1481.9525865 368.0822145139 C 1481.0619615 365.7072145139 1479.304149 364.5197145139 1476.679149 364.5197145139 L 1470.538524 364.5197145139 L 1470.538524 398.8790895139 L 1476.444774 398.8790895139 C 1479.194774 398.8790895139 1481.022899 397.6759645139 1481.929149 395.2697145139 C 1482.835399 392.8634645139 1483.288524 388.3478395139 1483.288524 381.7228395139 L 1483.288524 380.1290895139 Z M 1501.616649 379.2384645139 C 1501.616649 369.8634645139 1503.304149 363.4259645139 1506.679149 359.9259645139 C 1509.335399 357.1759645139 1513.194774 355.8009645139 1518.257274 355.8009645139 C 1525.632274 355.8009645139 1530.351024 358.8322145139 1532.413524 364.8947145139 C 1533.632274 368.4884645139 1534.241649 373.2697145139 1534.241649 379.2384645139 L 1534.241649 415.6134645139 C 1534.241649 424.2072145139 1533.038524 430.4650270139 1530.632274 434.3869020139 C 1528.226024 438.3087770139 1524.0150865 440.2697145139 1517.9994615 440.2697145139 C 1511.9838365 440.2697145139 1507.7494615 438.3009645139 1505.2963365 434.3634645139 C 1502.8432115 430.4259645139 1501.616649 424.1759645139 1501.616649 415.6134645139 L 1501.616649 379.2384645139 Z M 1524.538524 378.6759645139 C 1524.538524 373.3947145139 1524.116649 369.6525270139 1523.272899 367.4494020139 C 1522.429149 365.2462770139 1520.726024 364.1447145139 1518.163524 364.1447145139 C 1515.601024 364.1447145139 1513.819774 365.2697145139 1512.819774 367.5197145139 C 1511.819774 369.7697145139 1511.319774 373.4728395139 1511.319774 378.6290895139 L 1511.319774 415.7072145139 C 1511.319774 421.9884645139 1511.757274 426.2619020139 1512.632274 428.5275270139 C 1513.507274 430.7931520139 1515.272899 431.9259645139 1517.929149 431.9259645139 C 1520.585399 431.9259645139 1522.351024 430.7775270139 1523.226024 428.4806520139 C 1524.101024 426.1837770139 1524.538524 421.9259645139 1524.538524 415.7072145139 L 1524.538524 378.6759645139 Z M 1546.804149 356.8322145139 L 1564.101024 356.8322145139 C 1569.007274 356.8322145139 1572.538524 357.8478395139 1574.694774 359.8790895139 C 1576.851024 361.9103395139 1578.147899 365.3634645139 1578.585399 370.2384645139 C 1578.772899 372.2384645139 1578.866649 375.3556520139 1578.866649 379.5900270139 C 1578.866649 383.8244020139 1578.3119615 387.3790895139 1577.2025865 390.2540895139 C 1576.0932115 393.1290895139 1574.132274 394.9884645139 1571.319774 395.8322145139 C 1573.382274 396.1759645139 1574.944774 397.2619020139 1576.007274 399.0900270139 C 1577.069774 400.9181520139 1577.819774 403.8244020139 1578.257274 407.8087770139 C 1578.694774 411.7931520139 1578.913524 417.7150270139 1578.913524 425.5744020139 C 1578.913524 433.4337770139 1579.163524 438.0197145139 1579.663524 439.3322145139 L 1570.007274 439.3322145139 C 1569.507274 438.3322145139 1569.257274 429.0665895139 1569.257274 411.5353395139 C 1569.257274 405.6290895139 1568.679149 402.1994020139 1567.522899 401.2462770139 C 1566.366649 400.2931520139 1564.616649 399.8165895139 1562.272899 399.8165895139 L 1556.507274 399.4884645139 L 1556.507274 439.3322145139 L 1546.804149 439.3322145139 L 1546.804149 356.8322145139 Z M 1569.257274 377.0353395139 C 1569.257274 370.6915895139 1568.6869615 367.0197145139 1567.5463365 366.0197145139 C 1566.4057115 365.0197145139 1564.757274 364.5197145139 1562.601024 364.5197145139 L 1556.507274 364.5197145139 L 1556.507274 392.3634645139 L 1562.694774 392.3634645139 C 1564.569774 392.3634645139 1565.944774 392.0040895139 1566.819774 391.2853395139 C 1567.694774 390.5665895139 1568.319774 389.1915895139 1568.694774 387.1603395139 C 1569.069774 385.1290895139 1569.257274 381.9415895139 1569.257274 377.5978395139 L 1569.257274 377.0353395139 Z M 1600.335399 356.8322145139 L 1612.007274 356.8322145139 L 1625.647899 439.3322145139 L 1616.507274 439.3322145139 L 1614.163524 423.5822145139 L 1599.210399 423.5822145139 L 1597.054149 439.3322145139 L 1587.819774 439.3322145139 L 1600.335399 356.8322145139 Z M 1600.288524 415.7072145139 L 1612.944774 415.7072145139 L 1606.429149 372.1134645139 L 1606.288524 372.1134645139 L 1600.288524 415.7072145139 Z M 1628.788524 356.8322145139 L 1656.022899 356.8322145139 L 1656.022899 364.8947145139 L 1647.538524 364.8947145139 L 1647.538524 439.3322145139 L 1637.882274 439.3322145139 L 1637.882274 364.8947145139 L 1628.788524 364.8947145139 L 1628.788524 356.8322145139 Z M 1664.835399 356.8322145139 L 1674.538524 356.8322145139 L 1674.538524 439.3322145139 L 1664.835399 439.3322145139 L 1664.835399 356.8322145139 Z M 1687.851024 379.2384645139 C 1687.851024 369.8634645139 1689.538524 363.4259645139 1692.913524 359.9259645139 C 1695.569774 357.1759645139 1699.429149 355.8009645139 1704.491649 355.8009645139 C 1711.866649 355.8009645139 1716.585399 358.8322145139 1718.647899 364.8947145139 C 1719.866649 368.4884645139 1720.476024 373.2697145139 1720.476024 379.2384645139 L 1720.476024 415.6134645139 C 1720.476024 424.2072145139 1719.272899 430.4650270139 1716.866649 434.3869020139 C 1714.460399 438.3087770139 1710.2494615 440.2697145139 1704.2338365 440.2697145139 C 1698.2182115 440.2697145139 1693.9838365 438.3009645139 1691.5307115 434.3634645139 C 1689.0775865 430.4259645139 1687.851024 424.1759645139 1687.851024 415.6134645139 L 1687.851024 379.2384645139 Z M 1710.772899 378.6759645139 C 1710.772899 373.3947145139 1710.351024 369.6525270139 1709.507274 367.4494020139 C 1708.663524 365.2462770139 1706.960399 364.1447145139 1704.397899 364.1447145139 C 1701.835399 364.1447145139 1700.054149 365.2697145139 1699.054149 367.5197145139 C 1698.054149 369.7697145139 1697.554149 373.4728395139 1697.554149 378.6290895139 L 1697.554149 415.7072145139 C 1697.554149 421.9884645139 1697.991649 426.2619020139 1698.866649 428.5275270139 C 1699.741649 430.7931520139 1701.507274 431.9259645139 1704.163524 431.9259645139 C 1706.819774 431.9259645139 1708.585399 430.7775270139 1709.460399 428.4806520139 C 1710.335399 426.1837770139 1710.772899 421.9259645139 1710.772899 415.7072145139 L 1710.772899 378.6759645139 Z M 1758.491649 356.8322145139 L 1767.069774 356.8322145139 L 1767.069774 439.3322145139 L 1759.944774 439.3322145139 L 1741.429149 382.7072145139 L 1741.991649 403.5197145139 L 1741.991649 439.3322145139 L 1733.038524 439.3322145139 L 1733.038524 356.8322145139 L 1740.351024 356.8322145139 L 1759.476024 412.9884645139 L 1758.491649 389.1290895139 L 1758.491649 356.8322145139 Z"/><path id="text" fill="#192559" transform="matrix(0.48562548562548563 0 0 0.4856254856254857 -97.64205710955713 467.32646682502906)" d="M 520.936524 437.7002145139 C 517.576524 436.1642145139 514.936524 434.0202145139 513.016524 431.2682145139 C 511.096524 428.5162145139 510.072524 425.4442145139 509.944524 422.0522145139 L 517.048524 422.0522145139 C 517.368524 425.3162145139 518.808524 428.1802145139 521.368524 430.6442145139 C 523.928524 433.1082145139 527.672524 434.3402145139 532.600524 434.3402145139 C 537.144524 434.3402145139 540.744524 433.1722145139 543.400524 430.8362145139 C 546.056524 428.5002145139 547.384524 425.5402145139 547.384524 421.9562145139 C 547.384524 419.0762145139 546.648524 416.7562145139 545.176524 414.9962145139 C 543.704524 413.2362145139 541.880524 411.9242145139 539.704524 411.0602145139 C 537.528524 410.1962145139 534.520524 409.2522145139 530.680524 408.2282145139 C 526.200524 407.0122145139 522.648524 405.8282145139 520.024524 404.6762145139 C 517.400524 403.5242145139 515.160524 401.7322145139 513.304524 399.3002145139 C 511.448524 396.8682145139 510.520524 393.5722145139 510.520524 389.4122145139 C 510.520524 385.9562145139 511.416524 382.8682145139 513.208524 380.1482145139 C 515.000524 377.4282145139 517.528524 375.3002145139 520.792524 373.7642145139 C 524.056524 372.2282145139 527.800524 371.4602145139 532.024524 371.4602145139 C 538.232524 371.4602145139 543.240524 372.9802145139 547.048524 376.0202145139 C 550.856524 379.0602145139 553.048524 382.9802145139 553.624524 387.7802145139 L 546.328524 387.7802145139 C 545.880524 385.0282145139 544.376524 382.5802145139 541.816524 380.4362145139 C 539.256524 378.2922145139 535.800524 377.2202145139 531.448524 377.2202145139 C 527.416524 377.2202145139 524.056524 378.2922145139 521.368524 380.4362145139 C 518.680524 382.5802145139 517.336524 385.5082145139 517.336524 389.2202145139 C 517.336524 392.0362145139 518.072524 394.3082145139 519.544524 396.0362145139 C 521.016524 397.7642145139 522.856524 399.0762145139 525.064524 399.9722145139 C 527.272524 400.8682145139 530.264524 401.8282145139 534.040524 402.8522145139 C 538.392524 404.0682145139 541.912524 405.2682145139 544.600524 406.4522145139 C 547.288524 407.6362145139 549.560524 409.4442145139 551.416524 411.8762145139 C 553.272524 414.3082145139 554.200524 417.5722145139 554.200524 421.6682145139 C 554.200524 424.8042145139 553.368524 427.7802145139 551.704524 430.5962145139 C 550.040524 433.4122145139 547.576524 435.6842145139 544.312524 437.4122145139 C 541.048524 439.1402145139 537.144524 440.0042145139 532.600524 440.0042145139 C 528.184524 440.0042145139 524.296524 439.2362145139 520.936524 437.7002145139 Z M 616.984524 372.2282145139 L 616.984524 439.3322145139 L 610.264524 439.3322145139 L 610.264524 407.9402145139 L 573.880524 407.9402145139 L 573.880524 439.3322145139 L 567.160524 439.3322145139 L 567.160524 372.2282145139 L 573.880524 372.2282145139 L 573.880524 402.3722145139 L 610.264524 402.3722145139 L 610.264524 372.2282145139 L 616.984524 372.2282145139 Z M 639.064524 372.2282145139 L 639.064524 439.3322145139 L 632.344524 439.3322145139 L 632.344524 372.2282145139 L 639.064524 372.2282145139 Z M 691.576524 405.4442145139 C 687.800524 408.9642145139 682.136524 410.7242145139 674.584524 410.7242145139 L 661.048524 410.7242145139 L 661.048524 439.3322145139 L 654.328524 439.3322145139 L 654.328524 372.2282145139 L 674.584524 372.2282145139 C 682.072524 372.2282145139 687.720524 373.9882145139 691.528524 377.5082145139 C 695.336524 381.0282145139 697.240524 385.7002145139 697.240524 391.5242145139 C 697.240524 397.2842145139 695.352524 401.9242145139 691.576524 405.4442145139 Z M 690.328524 391.5242145139 C 690.328524 387.0442145139 689.080524 383.6522145139 686.584524 381.3482145139 C 684.088524 379.0442145139 680.088524 377.8922145139 674.584524 377.8922145139 L 661.048524 377.8922145139 L 661.048524 404.9642145139 L 674.584524 404.9642145139 C 685.080524 404.9642145139 690.328524 400.4842145139 690.328524 391.5242145139 Z M 745.720524 405.4442145139 C 741.944524 408.9642145139 736.280524 410.7242145139 728.728524 410.7242145139 L 715.192524 410.7242145139 L 715.192524 439.3322145139 L 708.472524 439.3322145139 L 708.472524 372.2282145139 L 728.728524 372.2282145139 C 736.216524 372.2282145139 741.864524 373.9882145139 745.672524 377.5082145139 C 749.480524 381.0282145139 751.384524 385.7002145139 751.384524 391.5242145139 C 751.384524 397.2842145139 749.496524 401.9242145139 745.720524 405.4442145139 Z M 744.472524 391.5242145139 C 744.472524 387.0442145139 743.224524 383.6522145139 740.728524 381.3482145139 C 738.232524 379.0442145139 734.232524 377.8922145139 728.728524 377.8922145139 L 715.192524 377.8922145139 L 715.192524 404.9642145139 L 728.728524 404.9642145139 C 739.224524 404.9642145139 744.472524 400.4842145139 744.472524 391.5242145139 Z M 769.336524 372.2282145139 L 769.336524 439.3322145139 L 762.616524 439.3322145139 L 762.616524 372.2282145139 L 769.336524 372.2282145139 Z M 835.192524 439.3322145139 L 828.472524 439.3322145139 L 791.320524 382.8842145139 L 791.320524 439.3322145139 L 784.600524 439.3322145139 L 784.600524 372.2282145139 L 791.320524 372.2282145139 L 828.472524 428.5802145139 L 828.472524 372.2282145139 L 835.192524 372.2282145139 L 835.192524 439.3322145139 Z M 903.256524 391.8122145139 C 901.336524 387.3962145139 898.408524 383.9242145139 894.472524 381.3962145139 C 890.536524 378.8682145139 885.912524 377.6042145139 880.600524 377.6042145139 C 875.608524 377.6042145139 871.128524 378.7562145139 867.160524 381.0602145139 C 863.192524 383.3642145139 860.056524 386.6442145139 857.752524 390.9002145139 C 855.448524 395.1562145139 854.296524 400.1002145139 854.296524 405.7322145139 C 854.296524 411.3642145139 855.448524 416.3242145139 857.752524 420.6122145139 C 860.056524 424.9002145139 863.192524 428.1962145139 867.160524 430.5002145139 C 871.128524 432.8042145139 875.608524 433.9562145139 880.600524 433.9562145139 C 885.272524 433.9562145139 889.480524 432.9482145139 893.224524 430.9322145139 C 896.968524 428.9162145139 899.976524 426.0362145139 902.248524 422.2922145139 C 904.520524 418.5482145139 905.816524 414.1802145139 906.136524 409.1882145139 L 877.912524 409.1882145139 L 877.912524 403.7162145139 L 913.240524 403.7162145139 L 913.240524 408.6122145139 C 912.920524 414.5002145139 911.320524 419.8282145139 908.440524 424.5962145139 C 905.560524 429.3642145139 901.704524 433.1242145139 896.872524 435.8762145139 C 892.040524 438.6282145139 886.616524 440.0042145139 880.600524 440.0042145139 C 874.392524 440.0042145139 868.760524 438.5482145139 863.704524 435.6362145139 C 858.648524 432.7242145139 854.664524 428.6602145139 851.752524 423.4442145139 C 848.840524 418.2282145139 847.384524 412.3242145139 847.384524 405.7322145139 C 847.384524 399.1402145139 848.840524 393.2362145139 851.752524 388.0202145139 C 854.664524 382.8042145139 858.648524 378.7402145139 863.704524 375.8282145139 C 868.760524 372.9162145139 874.392524 371.4602145139 880.600524 371.4602145139 C 887.768524 371.4602145139 894.040524 373.2522145139 899.416524 376.8362145139 C 904.792524 380.4202145139 908.696524 385.4122145139 911.128524 391.8122145139 L 903.256524 391.8122145139 Z M 1002.904524 439.3322145139 L 993.784524 430.0202145139 C 990.520524 433.6042145139 987.032524 436.2442145139 983.320524 437.9402145139 C 979.608524 439.6362145139 975.416524 440.4842145139 970.744524 440.4842145139 C 966.264524 440.4842145139 962.296524 439.6362145139 958.840524 437.9402145139 C 955.384524 436.2442145139 952.696524 433.8602145139 950.776524 430.7882145139 C 948.856524 427.7162145139 947.896524 424.1642145139 947.896524 420.1322145139 C 947.896524 415.3962145139 949.240524 411.2682145139 951.928524 407.7482145139 C 954.616524 404.2282145139 958.552524 401.4762145139 963.736524 399.4922145139 C 961.496524 396.9962145139 959.864524 394.6762145139 958.840524 392.5322145139 C 957.816524 390.3882145139 957.304524 388.0682145139 957.304524 385.5722145139 C 957.304524 381.2842145139 958.840524 377.8122145139 961.912524 375.1562145139 C 964.984524 372.5002145139 969.080524 371.1722145139 974.200524 371.1722145139 C 979.000524 371.1722145139 982.904524 372.5482145139 985.912524 375.3002145139 C 988.920524 378.0522145139 990.328524 381.6362145139 990.136524 386.0522145139 L 983.416524 386.0522145139 C 983.480524 383.1722145139 982.600524 380.9002145139 980.776524 379.2362145139 C 978.952524 377.5722145139 976.664524 376.7402145139 973.912524 376.7402145139 C 970.968524 376.7402145139 968.584524 377.5562145139 966.760524 379.1882145139 C 964.936524 380.8202145139 964.024524 382.9162145139 964.024524 385.4762145139 C 964.024524 387.5242145139 964.584524 389.5082145139 965.704524 391.4282145139 C 966.824524 393.3482145139 968.600524 395.6202145139 971.032524 398.2442145139 L 993.112524 420.6122145139 C 994.008524 419.3962145139 995.224524 417.4762145139 996.760524 414.8522145139 L 1002.904524 404.5802145139 L 1010.104524 404.5802145139 L 1002.808524 417.1562145139 C 1001.080524 420.1642145139 999.352524 422.8522145139 997.624524 425.2202145139 L 1011.640524 439.3322145139 L 1002.904524 439.3322145139 Z M 980.872524 432.4202145139 C 983.848524 430.9482145139 986.680524 428.6442145139 989.368524 425.5082145139 L 967.960524 403.8122145139 C 959.064524 407.0762145139 954.616524 412.4522145139 954.616524 419.9402145139 C 954.616524 422.7562145139 955.304524 425.2682145139 956.680524 427.4762145139 C 958.056524 429.6842145139 959.960524 431.4282145139 962.392524 432.7082145139 C 964.824524 433.9882145139 967.608524 434.6282145139 970.744524 434.6282145139 C 974.520524 434.6282145139 977.896524 433.8922145139 980.872524 432.4202145139 Z M 1053.880524 433.8602145139 L 1077.976524 433.8602145139 L 1077.976524 439.3322145139 L 1047.160524 439.3322145139 L 1047.160524 372.2282145139 L 1053.880524 372.2282145139 L 1053.880524 433.8602145139 Z M 1100.824524 435.6362145139 C 1095.768524 432.7242145139 1091.784524 428.6602145139 1088.872524 423.4442145139 C 1085.960524 418.2282145139 1084.504524 412.3242145139 1084.504524 405.7322145139 C 1084.504524 399.1402145139 1085.960524 393.2362145139 1088.872524 388.0202145139 C 1091.784524 382.8042145139 1095.768524 378.7402145139 1100.824524 375.8282145139 C 1105.880524 372.9162145139 1111.512524 371.4602145139 1117.720524 371.4602145139 C 1123.992524 371.4602145139 1129.656524 372.9162145139 1134.712524 375.8282145139 C 1139.768524 378.7402145139 1143.736524 382.8042145139 1146.616524 388.0202145139 C 1149.496524 393.2362145139 1150.936524 399.1402145139 1150.936524 405.7322145139 C 1150.936524 412.3242145139 1149.496524 418.2282145139 1146.616524 423.4442145139 C 1143.736524 428.6602145139 1139.768524 432.7242145139 1134.712524 435.6362145139 C 1129.656524 438.5482145139 1123.992524 440.0042145139 1117.720524 440.0042145139 C 1111.512524 440.0042145139 1105.880524 438.5482145139 1100.824524 435.6362145139 Z M 1131.160524 430.6922145139 C 1135.128524 428.3882145139 1138.264524 425.0762145139 1140.568524 420.7562145139 C 1142.872524 416.4362145139 1144.024524 411.4282145139 1144.024524 405.7322145139 C 1144.024524 400.0362145139 1142.872524 395.0442145139 1140.568524 390.7562145139 C 1138.264524 386.4682145139 1135.128524 383.1722145139 1131.160524 380.8682145139 C 1127.192524 378.5642145139 1122.712524 377.4122145139 1117.720524 377.4122145139 C 1112.728524 377.4122145139 1108.248524 378.5642145139 1104.280524 380.8682145139 C 1100.312524 383.1722145139 1097.176524 386.4682145139 1094.872524 390.7562145139 C 1092.568524 395.0442145139 1091.416524 400.0362145139 1091.416524 405.7322145139 C 1091.416524 411.4282145139 1092.568524 416.4362145139 1094.872524 420.7562145139 C 1097.176524 425.0762145139 1100.312524 428.3882145139 1104.280524 430.6922145139 C 1108.248524 432.9962145139 1112.728524 434.1482145139 1117.720524 434.1482145139 C 1122.712524 434.1482145139 1127.192524 432.9962145139 1131.160524 430.6922145139 Z M 1216.024524 391.8122145139 C 1214.104524 387.3962145139 1211.176524 383.9242145139 1207.240524 381.3962145139 C 1203.304524 378.8682145139 1198.680524 377.6042145139 1193.368524 377.6042145139 C 1188.376524 377.6042145139 1183.896524 378.7562145139 1179.928524 381.0602145139 C 1175.960524 383.3642145139 1172.824524 386.6442145139 1170.520524 390.9002145139 C 1168.216524 395.1562145139 1167.064524 400.1002145139 1167.064524 405.7322145139 C 1167.064524 411.3642145139 1168.216524 416.3242145139 1170.520524 420.6122145139 C 1172.824524 424.9002145139 1175.960524 428.1962145139 1179.928524 430.5002145139 C 1183.896524 432.8042145139 1188.376524 433.9562145139 1193.368524 433.9562145139 C 1198.040524 433.9562145139 1202.248524 432.9482145139 1205.992524 430.9322145139 C 1209.736524 428.9162145139 1212.744524 426.0362145139 1215.016524 422.2922145139 C 1217.288524 418.5482145139 1218.584524 414.1802145139 1218.904524 409.1882145139 L 1190.680524 409.1882145139 L 1190.680524 403.7162145139 L 1226.008524 403.7162145139 L 1226.008524 408.6122145139 C 1225.688524 414.5002145139 1224.088524 419.8282145139 1221.208524 424.5962145139 C 1218.328524 429.3642145139 1214.472524 433.1242145139 1209.640524 435.8762145139 C 1204.808524 438.6282145139 1199.384524 440.0042145139 1193.368524 440.0042145139 C 1187.160524 440.0042145139 1181.528524 438.5482145139 1176.472524 435.6362145139 C 1171.416524 432.7242145139 1167.432524 428.6602145139 1164.520524 423.4442145139 C 1161.608524 418.2282145139 1160.152524 412.3242145139 1160.152524 405.7322145139 C 1160.152524 399.1402145139 1161.608524 393.2362145139 1164.520524 388.0202145139 C 1167.432524 382.8042145139 1171.416524 378.7402145139 1176.472524 375.8282145139 C 1181.528524 372.9162145139 1187.160524 371.4602145139 1193.368524 371.4602145139 C 1200.536524 371.4602145139 1206.808524 373.2522145139 1212.184524 376.8362145139 C 1217.560524 380.4202145139 1221.464524 385.4122145139 1223.896524 391.8122145139 L 1216.024524 391.8122145139 Z M 1245.016524 372.2282145139 L 1245.016524 439.3322145139 L 1238.296524 439.3322145139 L 1238.296524 372.2282145139 L 1245.016524 372.2282145139 Z M 1268.968524 437.7002145139 C 1265.608524 436.1642145139 1262.968524 434.0202145139 1261.048524 431.2682145139 C 1259.128524 428.5162145139 1258.104524 425.4442145139 1257.976524 422.0522145139 L 1265.080524 422.0522145139 C 1265.400524 425.3162145139 1266.840524 428.1802145139 1269.400524 430.6442145139 C 1271.960524 433.1082145139 1275.704524 434.3402145139 1280.632524 434.3402145139 C 1285.176524 434.3402145139 1288.776524 433.1722145139 1291.432524 430.8362145139 C 1294.088524 428.5002145139 1295.416524 425.5402145139 1295.416524 421.9562145139 C 1295.416524 419.0762145139 1294.680524 416.7562145139 1293.208524 414.9962145139 C 1291.736524 413.2362145139 1289.912524 411.9242145139 1287.736524 411.0602145139 C 1285.560524 410.1962145139 1282.552524 409.2522145139 1278.712524 408.2282145139 C 1274.232524 407.0122145139 1270.680524 405.8282145139 1268.056524 404.6762145139 C 1265.432524 403.5242145139 1263.192524 401.7322145139 1261.336524 399.3002145139 C 1259.480524 396.8682145139 1258.552524 393.5722145139 1258.552524 389.4122145139 C 1258.552524 385.9562145139 1259.448524 382.8682145139 1261.240524 380.1482145139 C 1263.032524 377.4282145139 1265.560524 375.3002145139 1268.824524 373.7642145139 C 1272.088524 372.2282145139 1275.832524 371.4602145139 1280.056524 371.4602145139 C 1286.264524 371.4602145139 1291.272524 372.9802145139 1295.080524 376.0202145139 C 1298.888524 379.0602145139 1301.080524 382.9802145139 1301.656524 387.7802145139 L 1294.360524 387.7802145139 C 1293.912524 385.0282145139 1292.408524 382.5802145139 1289.848524 380.4362145139 C 1287.288524 378.2922145139 1283.832524 377.2202145139 1279.480524 377.2202145139 C 1275.448524 377.2202145139 1272.088524 378.2922145139 1269.400524 380.4362145139 C 1266.712524 382.5802145139 1265.368524 385.5082145139 1265.368524 389.2202145139 C 1265.368524 392.0362145139 1266.104524 394.3082145139 1267.576524 396.0362145139 C 1269.048524 397.7642145139 1270.888524 399.0762145139 1273.096524 399.9722145139 C 1275.304524 400.8682145139 1278.296524 401.8282145139 1282.072524 402.8522145139 C 1286.424524 404.0682145139 1289.944524 405.2682145139 1292.632524 406.4522145139 C 1295.320524 407.6362145139 1297.592524 409.4442145139 1299.448524 411.8762145139 C 1301.304524 414.3082145139 1302.232524 417.5722145139 1302.232524 421.6682145139 C 1302.232524 424.8042145139 1301.400524 427.7802145139 1299.736524 430.5962145139 C 1298.072524 433.4122145139 1295.608524 435.6842145139 1292.344524 437.4122145139 C 1289.080524 439.1402145139 1285.176524 440.0042145139 1280.632524 440.0042145139 C 1276.216524 440.0042145139 1272.328524 439.2362145139 1268.968524 437.7002145139 Z M 1354.456524 372.2282145139 L 1354.456524 377.7962145139 L 1335.832524 377.7962145139 L 1335.832524 439.3322145139 L 1329.112524 439.3322145139 L 1329.112524 377.7962145139 L 1310.392524 377.7962145139 L 1310.392524 372.2282145139 L 1354.456524 372.2282145139 Z M 1371.832524 372.2282145139 L 1371.832524 439.3322145139 L 1365.112524 439.3322145139 L 1365.112524 372.2282145139 L 1371.832524 372.2282145139 Z M 1388.344524 388.0202145139 C 1391.224524 382.8042145139 1395.160524 378.7402145139 1400.152524 375.8282145139 C 1405.144524 372.9162145139 1410.712524 371.4602145139 1416.856524 371.4602145139 C 1424.344524 371.4602145139 1430.760524 373.2362145139 1436.104524 376.7882145139 C 1441.448524 380.3402145139 1445.336524 385.3482145139 1447.768524 391.8122145139 L 1439.896524 391.8122145139 C 1437.976524 387.2682145139 1435.048524 383.7162145139 1431.112524 381.1562145139 C 1427.176524 378.5962145139 1422.424524 377.3162145139 1416.856524 377.3162145139 C 1411.928524 377.3162145139 1407.496524 378.4682145139 1403.560524 380.7722145139 C 1399.624524 383.0762145139 1396.536524 386.3882145139 1394.296524 390.7082145139 C 1392.056524 395.0282145139 1390.936524 400.0362145139 1390.936524 405.7322145139 C 1390.936524 411.4282145139 1392.056524 416.4202145139 1394.296524 420.7082145139 C 1396.536524 424.9962145139 1399.624524 428.2922145139 1403.560524 430.5962145139 C 1407.496524 432.9002145139 1411.928524 434.0522145139 1416.856524 434.0522145139 C 1422.424524 434.0522145139 1427.176524 432.7882145139 1431.112524 430.2602145139 C 1435.048524 427.7322145139 1437.976524 424.2282145139 1439.896524 419.7482145139 L 1447.768524 419.7482145139 C 1445.336524 426.1482145139 1441.432524 431.1082145139 1436.056524 434.6282145139 C 1430.680524 438.1482145139 1424.280524 439.9082145139 1416.856524 439.9082145139 C 1410.712524 439.9082145139 1405.144524 438.4522145139 1400.152524 435.5402145139 C 1395.160524 432.6282145139 1391.224524 428.5802145139 1388.344524 423.3962145139 C 1385.464524 418.2122145139 1384.024524 412.3242145139 1384.024524 405.7322145139 C 1384.024524 399.1402145139 1385.464524 393.2362145139 1388.344524 388.0202145139 Z M 1469.800524 437.7002145139 C 1466.440524 436.1642145139 1463.800524 434.0202145139 1461.880524 431.2682145139 C 1459.960524 428.5162145139 1458.936524 425.4442145139 1458.808524 422.0522145139 L 1465.912524 422.0522145139 C 1466.232524 425.3162145139 1467.672524 428.1802145139 1470.232524 430.6442145139 C 1472.792524 433.1082145139 1476.536524 434.3402145139 1481.464524 434.3402145139 C 1486.008524 434.3402145139 1489.608524 433.1722145139 1492.264524 430.8362145139 C 1494.920524 428.5002145139 1496.248524 425.5402145139 1496.248524 421.9562145139 C 1496.248524 419.0762145139 1495.512524 416.7562145139 1494.040524 414.9962145139 C 1492.568524 413.2362145139 1490.744524 411.9242145139 1488.568524 411.0602145139 C 1486.392524 410.1962145139 1483.384524 409.2522145139 1479.544524 408.2282145139 C 1475.064524 407.0122145139 1471.512524 405.8282145139 1468.888524 404.6762145139 C 1466.264524 403.5242145139 1464.024524 401.7322145139 1462.168524 399.3002145139 C 1460.312524 396.8682145139 1459.384524 393.5722145139 1459.384524 389.4122145139 C 1459.384524 385.9562145139 1460.280524 382.8682145139 1462.072524 380.1482145139 C 1463.864524 377.4282145139 1466.392524 375.3002145139 1469.656524 373.7642145139 C 1472.920524 372.2282145139 1476.664524 371.4602145139 1480.888524 371.4602145139 C 1487.096524 371.4602145139 1492.104524 372.9802145139 1495.912524 376.0202145139 C 1499.720524 379.0602145139 1501.912524 382.9802145139 1502.488524 387.7802145139 L 1495.192524 387.7802145139 C 1494.744524 385.0282145139 1493.240524 382.5802145139 1490.680524 380.4362145139 C 1488.120524 378.2922145139 1484.664524 377.2202145139 1480.312524 377.2202145139 C 1476.280524 377.2202145139 1472.920524 378.2922145139 1470.232524 380.4362145139 C 1467.544524 382.5802145139 1466.200524 385.5082145139 1466.200524 389.2202145139 C 1466.200524 392.0362145139 1466.936524 394.3082145139 1468.408524 396.0362145139 C 1469.880524 397.7642145139 1471.720524 399.0762145139 1473.928524 399.9722145139 C 1476.136524 400.8682145139 1479.128524 401.8282145139 1482.904524 402.8522145139 C 1487.256524 404.0682145139 1490.776524 405.2682145139 1493.464524 406.4522145139 C 1496.152524 407.6362145139 1498.424524 409.4442145139 1500.280524 411.8762145139 C 1502.136524 414.3082145139 1503.064524 417.5722145139 1503.064524 421.6682145139 C 1503.064524 424.8042145139 1502.232524 427.7802145139 1500.568524 430.5962145139 C 1498.904524 433.4122145139 1496.440524 435.6842145139 1493.176524 437.4122145139 C 1489.912524 439.1402145139 1486.008524 440.0042145139 1481.464524 440.0042145139 C 1477.048524 440.0042145139 1473.160524 439.2362145139 1469.800524 437.7002145139 Z M 1551.016524 437.7002145139 C 1547.656524 436.1642145139 1545.016524 434.0202145139 1543.096524 431.2682145139 C 1541.176524 428.5162145139 1540.152524 425.4442145139 1540.024524 422.0522145139 L 1547.128524 422.0522145139 C 1547.448524 425.3162145139 1548.888524 428.1802145139 1551.448524 430.6442145139 C 1554.008524 433.1082145139 1557.752524 434.3402145139 1562.680524 434.3402145139 C 1567.224524 434.3402145139 1570.824524 433.1722145139 1573.480524 430.8362145139 C 1576.136524 428.5002145139 1577.464524 425.5402145139 1577.464524 421.9562145139 C 1577.464524 419.0762145139 1576.728524 416.7562145139 1575.256524 414.9962145139 C 1573.784524 413.2362145139 1571.960524 411.9242145139 1569.784524 411.0602145139 C 1567.608524 410.1962145139 1564.600524 409.2522145139 1560.760524 408.2282145139 C 1556.280524 407.0122145139 1552.728524 405.8282145139 1550.104524 404.6762145139 C 1547.480524 403.5242145139 1545.240524 401.7322145139 1543.384524 399.3002145139 C 1541.528524 396.8682145139 1540.600524 393.5722145139 1540.600524 389.4122145139 C 1540.600524 385.9562145139 1541.496524 382.8682145139 1543.288524 380.1482145139 C 1545.080524 377.4282145139 1547.608524 375.3002145139 1550.872524 373.7642145139 C 1554.136524 372.2282145139 1557.880524 371.4602145139 1562.104524 371.4602145139 C 1568.312524 371.4602145139 1573.320524 372.9802145139 1577.128524 376.0202145139 C 1580.936524 379.0602145139 1583.128524 382.9802145139 1583.704524 387.7802145139 L 1576.408524 387.7802145139 C 1575.960524 385.0282145139 1574.456524 382.5802145139 1571.896524 380.4362145139 C 1569.336524 378.2922145139 1565.880524 377.2202145139 1561.528524 377.2202145139 C 1557.496524 377.2202145139 1554.136524 378.2922145139 1551.448524 380.4362145139 C 1548.760524 382.5802145139 1547.416524 385.5082145139 1547.416524 389.2202145139 C 1547.416524 392.0362145139 1548.152524 394.3082145139 1549.624524 396.0362145139 C 1551.096524 397.7642145139 1552.936524 399.0762145139 1555.144524 399.9722145139 C 1557.352524 400.8682145139 1560.344524 401.8282145139 1564.120524 402.8522145139 C 1568.472524 404.0682145139 1571.992524 405.2682145139 1574.680524 406.4522145139 C 1577.368524 407.6362145139 1579.640524 409.4442145139 1581.496524 411.8762145139 C 1583.352524 414.3082145139 1584.280524 417.5722145139 1584.280524 421.6682145139 C 1584.280524 424.8042145139 1583.448524 427.7802145139 1581.784524 430.5962145139 C 1580.120524 433.4122145139 1577.656524 435.6842145139 1574.392524 437.4122145139 C 1571.128524 439.1402145139 1567.224524 440.0042145139 1562.680524 440.0042145139 C 1558.264524 440.0042145139 1554.376524 439.2362145139 1551.016524 437.7002145139 Z M 1603.960524 377.7002145139 L 1603.960524 402.7562145139 L 1629.400524 402.7562145139 L 1629.400524 408.3242145139 L 1603.960524 408.3242145139 L 1603.960524 433.7642145139 L 1632.280524 433.7642145139 L 1632.280524 439.3322145139 L 1597.240524 439.3322145139 L 1597.240524 372.1322145139 L 1632.280524 372.1322145139 L 1632.280524 377.7002145139 L 1603.960524 377.7002145139 Z M 1681.240524 439.3322145139 L 1664.632524 411.3002145139 L 1652.248524 411.3002145139 L 1652.248524 439.3322145139 L 1645.528524 439.3322145139 L 1645.528524 372.2282145139 L 1665.688524 372.2282145139 C 1673.176524 372.2282145139 1678.856524 374.0202145139 1682.728524 377.6042145139 C 1686.600524 381.1882145139 1688.536524 385.8922145139 1688.536524 391.7162145139 C 1688.536524 396.5802145139 1687.144524 400.7242145139 1684.360524 404.1482145139 C 1681.576524 407.5722145139 1677.464524 409.7962145139 1672.024524 410.8202145139 L 1689.304524 439.3322145139 L 1681.240524 439.3322145139 Z M 1652.248524 405.8282145139 L 1665.784524 405.8282145139 C 1671.032524 405.8282145139 1674.984524 404.5482145139 1677.640524 401.9882145139 C 1680.296524 399.4282145139 1681.624524 396.0042145139 1681.624524 391.7162145139 C 1681.624524 387.3002145139 1680.344524 383.8922145139 1677.784524 381.4922145139 C 1675.224524 379.0922145139 1671.192524 377.8922145139 1665.688524 377.8922145139 L 1652.248524 377.8922145139 L 1652.248524 405.8282145139 Z M 1755.064524 372.2282145139 L 1729.624524 439.3322145139 L 1721.944524 439.3322145139 L 1696.504524 372.2282145139 L 1703.800524 372.2282145139 L 1725.784524 432.0362145139 L 1747.960524 372.2282145139 L 1755.064524 372.2282145139 Z M 1771.864524 372.2282145139 L 1771.864524 439.3322145139 L 1765.144524 439.3322145139 L 1765.144524 372.2282145139 L 1771.864524 372.2282145139 Z M 1788.376524 388.0202145139 C 1791.256524 382.8042145139 1795.192524 378.7402145139 1800.184524 375.8282145139 C 1805.176524 372.9162145139 1810.744524 371.4602145139 1816.888524 371.4602145139 C 1824.376524 371.4602145139 1830.792524 373.2362145139 1836.136524 376.7882145139 C 1841.480524 380.3402145139 1845.368524 385.3482145139 1847.800524 391.8122145139 L 1839.928524 391.8122145139 C 1838.008524 387.2682145139 1835.080524 383.7162145139 1831.144524 381.1562145139 C 1827.208524 378.5962145139 1822.456524 377.3162145139 1816.888524 377.3162145139 C 1811.960524 377.3162145139 1807.528524 378.4682145139 1803.592524 380.7722145139 C 1799.656524 383.0762145139 1796.568524 386.3882145139 1794.328524 390.7082145139 C 1792.088524 395.0282145139 1790.968524 400.0362145139 1790.968524 405.7322145139 C 1790.968524 411.4282145139 1792.088524 416.4202145139 1794.328524 420.7082145139 C 1796.568524 424.9962145139 1799.656524 428.2922145139 1803.592524 430.5962145139 C 1807.528524 432.9002145139 1811.960524 434.0522145139 1816.888524 434.0522145139 C 1822.456524 434.0522145139 1827.208524 432.7882145139 1831.144524 430.2602145139 C 1835.080524 427.7322145139 1838.008524 424.2282145139 1839.928524 419.7482145139 L 1847.800524 419.7482145139 C 1845.368524 426.1482145139 1841.464524 431.1082145139 1836.088524 434.6282145139 C 1830.712524 438.1482145139 1824.312524 439.9082145139 1816.888524 439.9082145139 C 1810.744524 439.9082145139 1805.176524 438.4522145139 1800.184524 435.5402145139 C 1795.192524 432.6282145139 1791.256524 428.5802145139 1788.376524 423.3962145139 C 1785.496524 418.2122145139 1784.056524 412.3242145139 1784.056524 405.7322145139 C 1784.056524 399.1402145139 1785.496524 393.2362145139 1788.376524 388.0202145139 Z M 1867.864524 377.7002145139 L 1867.864524 402.7562145139 L 1893.304524 402.7562145139 L 1893.304524 408.3242145139 L 1867.864524 408.3242145139 L 1867.864524 433.7642145139 L 1896.184524 433.7642145139 L 1896.184524 439.3322145139 L 1861.144524 439.3322145139 L 1861.144524 372.1322145139 L 1896.184524 372.1322145139 L 1896.184524 377.7002145139 L 1867.864524 377.7002145139 Z M 1918.120524 437.7002145139 C 1914.760524 436.1642145139 1912.120524 434.0202145139 1910.200524 431.2682145139 C 1908.280524 428.5162145139 1907.256524 425.4442145139 1907.128524 422.0522145139 L 1914.232524 422.0522145139 C 1914.552524 425.3162145139 1915.992524 428.1802145139 1918.552524 430.6442145139 C 1921.112524 433.1082145139 1924.856524 434.3402145139 1929.784524 434.3402145139 C 1934.328524 434.3402145139 1937.928524 433.1722145139 1940.584524 430.8362145139 C 1943.240524 428.5002145139 1944.568524 425.5402145139 1944.568524 421.9562145139 C 1944.568524 419.0762145139 1943.832524 416.7562145139 1942.360524 414.9962145139 C 1940.888524 413.2362145139 1939.064524 411.9242145139 1936.888524 411.0602145139 C 1934.712524 410.1962145139 1931.704524 409.2522145139 1927.864524 408.2282145139 C 1923.384524 407.0122145139 1919.832524 405.8282145139 1917.208524 404.6762145139 C 1914.584524 403.5242145139 1912.344524 401.7322145139 1910.488524 399.3002145139 C 1908.632524 396.8682145139 1907.704524 393.5722145139 1907.704524 389.4122145139 C 1907.704524 385.9562145139 1908.600524 382.8682145139 1910.392524 380.1482145139 C 1912.184524 377.4282145139 1914.712524 375.3002145139 1917.976524 373.7642145139 C 1921.240524 372.2282145139 1924.984524 371.4602145139 1929.208524 371.4602145139 C 1935.416524 371.4602145139 1940.424524 372.9802145139 1944.232524 376.0202145139 C 1948.040524 379.0602145139 1950.232524 382.9802145139 1950.808524 387.7802145139 L 1943.512524 387.7802145139 C 1943.064524 385.0282145139 1941.560524 382.5802145139 1939.000524 380.4362145139 C 1936.440524 378.2922145139 1932.984524 377.2202145139 1928.632524 377.2202145139 C 1924.600524 377.2202145139 1921.240524 378.2922145139 1918.552524 380.4362145139 C 1915.864524 382.5802145139 1914.520524 385.5082145139 1914.520524 389.2202145139 C 1914.520524 392.0362145139 1915.256524 394.3082145139 1916.728524 396.0362145139 C 1918.200524 397.7642145139 1920.040524 399.0762145139 1922.248524 399.9722145139 C 1924.456524 400.8682145139 1927.448524 401.8282145139 1931.224524 402.8522145139 C 1935.576524 404.0682145139 1939.096524 405.2682145139 1941.784524 406.4522145139 C 1944.472524 407.6362145139 1946.744524 409.4442145139 1948.600524 411.8762145139 C 1950.456524 414.3082145139 1951.384524 417.5722145139 1951.384524 421.6682145139 C 1951.384524 424.8042145139 1950.552524 427.7802145139 1948.888524 430.5962145139 C 1947.224524 433.4122145139 1944.760524 435.6842145139 1941.496524 437.4122145139 C 1938.232524 439.1402145139 1934.328524 440.0042145139 1929.784524 440.0042145139 C 1925.368524 440.0042145139 1921.480524 439.2362145139 1918.120524 437.7002145139 Z"/></svg>